<?xml version="1.0" encoding="utf-8"?>
<svg viewBox="0 0 439.48 439.48" style="enable-background:new 0 0 439.48 439.48;" xmlns="http://www.w3.org/2000/svg">
  <g>
    <g>
      <polygon style="fill:#F2F2F2;" points="133.19,213.8 107.62,266.1 85.37,219.58 110.62,165.15   "/>
      <polygon style="fill:#999999;" points="155.09,261.02 174.643,308.1 174.643,332.767 175.977,355.433 82.12,363 20.17,363     20.17,360.14 85.37,219.58 107.62,231.15 133.19,213.8   "/>
      <polygon style="fill:#B3B3B3;" points="107.62,231.15 160.643,307.433 155.09,261.02 133.19,213.8   "/>
      <polygon style="fill:#F2F2F2;" points="332.61,231.15 349.85,255.74 331.11,292.767 314.1,257.55   "/>
      <polygon style="fill:#F2F2F2;" points="224.61,111.15 266.951,196.918 263.977,245.433 179.977,244.767 194.61,177.15     194.11,176.92   "/>
      <polygon style="fill:#999999;" points="415.977,359.433 423.06,363 358.1,363 285.977,354.767 279.977,310.1 301.11,276.07     314.1,257.55 331.11,273.14 349.85,255.74   "/>
      <polygon style="fill:#B3B3B3;" points="317.57,311.54 327.31,304.51 358.1,363 82.12,363 127.11,277.51 142.34,288.51     142.35,288.5 155.09,261.02 194.11,176.92 194.61,177.15 203.61,207.15 235.11,180.15 267.88,204.42 301.11,276.07   "/>
      <polygon style="fill:#CCCCCC;" points="235.11,180.15 236.953,228.416 259.11,283.65 268.11,274.65 296.95,325.912 317.57,311.54     266.951,196.918   "/>
      <polyline style="fill:#999999;" points="142.35,288.5 178.643,315.433 203.61,207.15 194.11,176.92   "/>
      <polygon style="fill:#B3B3B3;" points="331.11,273.14 379.977,363 425.31,363 349.85,255.74   "/>
    </g>
    <g>
      <path style="fill:#0FBC30;" d="M439.48,379.32H0c0-4.43,1.13-8.59,3.12-12.22c1.17-2.14,2.64-4.09,4.35-5.8    c4.61-4.62,10.99-7.47,18.03-7.47h388.48c9.65,0,18.05,5.36,22.38,13.27C438.35,370.73,439.48,374.89,439.48,379.32z"/>
      <path style="fill:#07A521;" d="M439.48,379.32H0c0-4.43,1.13-8.59,3.12-12.22h433.24C438.35,370.73,439.48,374.89,439.48,379.32z"/>
    </g>
  </g>
</svg>