<?xml version="1.0" standalone="no"?>
<!DOCTYPE svg PUBLIC "-//W3C//DTD SVG 20010904//EN"
 "http://www.w3.org/TR/2001/REC-SVG-20010904/DTD/svg10.dtd">
<svg version="1.0" xmlns="http://www.w3.org/2000/svg"
 width="723.000000pt" height="724.000000pt" viewBox="0 0 723.000000 724.000000"
 preserveAspectRatio="xMidYMid meet">

<g transform="translate(0.000000,724.000000) scale(0.100000,-0.100000)"
fill="#000000" stroke="none">
<path d="M3390 6584 c-243 -29 -350 -49 -530 -100 -446 -127 -835 -358 -1175
-699 -433 -432 -684 -932 -782 -1555 -25 -164 -25 -596 0 -760 77 -490 244
-891 535 -1280 112 -150 372 -410 522 -522 389 -291 790 -458 1280 -535 164
-25 596 -25 760 0 490 77 891 244 1280 535 150 112 410 372 522 522 291 389
458 790 535 1280 25 164 25 596 0 760 -77 490 -244 891 -535 1280 -112 150
-372 410 -522 522 -386 288 -789 458 -1270 533 -101 16 -534 29 -620 19z"/>
</g>
</svg>
